<?xml version="1.0" encoding="UTF-8" standalone="no"?>
<!-- Created with Inkscape (http://www.inkscape.org/) -->

<svg
   xmlns:dc="http://purl.org/dc/elements/1.1/"
   xmlns:cc="http://creativecommons.org/ns#"
   xmlns:rdf="http://www.w3.org/1999/02/22-rdf-syntax-ns#"
   xmlns:svg="http://www.w3.org/2000/svg"
   xmlns="http://www.w3.org/2000/svg"
   xmlns:sodipodi="http://sodipodi.sourceforge.net/DTD/sodipodi-0.dtd"
   xmlns:inkscape="http://www.inkscape.org/namespaces/inkscape"
   width="375.285mm"
   height="182.65891mm"
   viewBox="0 0 1329.75 647.21659"
   id="svg2"
   version="1.1"
   inkscape:version="0.91 r13725"
   sodipodi:docname="kayak.svg">
  <defs
     id="defs4">
    <filter
       inkscape:collect="always"
       style="color-interpolation-filters:sRGB"
       id="filter4207"
       x="-0.0077339336"
       width="1.0154679"
       y="-0.026762038"
       height="1.0535241">
      <feGaussianBlur
         inkscape:collect="always"
         stdDeviation="3.3339869"
         id="feGaussianBlur4209" />
    </filter>
    <filter
       inkscape:collect="always"
       style="color-interpolation-filters:sRGB"
       id="filter4211"
       x="-0.0080733187"
       width="1.0161465"
       y="-0.023363467"
       height="1.0467269">
      <feGaussianBlur
         inkscape:collect="always"
         stdDeviation="3.9328504"
         id="feGaussianBlur4213" />
    </filter>
    <filter
       inkscape:collect="always"
       style="color-interpolation-filters:sRGB"
       id="filter4219"
       x="-0.017089374"
       width="1.0341789"
       y="-0.040294237"
       height="1.0805885">
      <feGaussianBlur
         inkscape:collect="always"
         stdDeviation="0.41458213"
         id="feGaussianBlur4221" />
    </filter>
  </defs>
  <sodipodi:namedview
     id="base"
     pagecolor="#ffffff"
     bordercolor="#666666"
     borderopacity="1.0"
     inkscape:pageopacity="0.0"
     inkscape:pageshadow="2"
     inkscape:zoom="0.71"
     inkscape:cx="603.79693"
     inkscape:cy="270.85723"
     inkscape:document-units="px"
     inkscape:current-layer="layer1"
     showgrid="false"
     inkscape:window-width="1920"
     inkscape:window-height="1033"
     inkscape:window-x="0"
     inkscape:window-y="0"
     inkscape:window-maximized="1"
     fit-margin-top="20"
     fit-margin-left="20"
     fit-margin-right="20"
     fit-margin-bottom="20" />
  <metadata
     id="metadata7">
    <rdf:RDF>
      <cc:Work
         rdf:about="">
        <dc:format>image/svg+xml</dc:format>
        <dc:type
           rdf:resource="http://purl.org/dc/dcmitype/StillImage" />
        <dc:title></dc:title>
      </cc:Work>
    </rdf:RDF>
  </metadata>
  <g
     inkscape:label="Layer 1"
     inkscape:groupmode="layer"
     id="layer1"
     transform="translate(308.38598,-36.002861)">
    <path
       style="fill:#008080;fill-rule:evenodd;stroke:#000000;stroke-width:1px;stroke-linecap:butt;stroke-linejoin:miter;stroke-opacity:1;filter:url(#filter4211)"
       d="m -188,226.3622 c 3,-4 13,-18 79,-23 66,-5 69,0 120,-5 51,-5 47,-7 109,-7 62,0 47,7 113,8 66,1 77,15 164,26 87,11 126,11 195,22 69,11 113,17 175,34 62,17 66,17 106,40 40,23 64,65 64,65 0,0 14,67 -10,111 -24,44 -67,79 -115,86 -48,7 -168,12 -274,12 -106,0 -208,-17 -318,-22 -110,-5 -186,-2 -276,-44 -90,-42 -152,-60 -155,-126 -3,-66 -32,-103 -7,-138 25,-35 30,-39 30,-39 z"
       id="path4173"
       inkscape:connector-curvature="0" />
    <path
       style="fill:#241c1c;fill-rule:evenodd;stroke:#000000;stroke-width:1px;stroke-linecap:butt;stroke-linejoin:miter;stroke-opacity:1"
       d="m 116.47472,205.35651 c -12,6 -9.51942,32.5971 -10.5,37.5 0,0 2.5,35.5 7.5,42.5 5,7 -5,14 0,19.00001 5,5 44,16 55,14 11,-2 46.00001,-22.00001 50.00001,-27.00001 4,-5 -20,-37 -21,-46 -1,-9 -22.00001,-45 -26.00001,-41 -4,4 -33,8 -37,8 -4,0 -18,-7 -18,-7 z"
       id="path4161"
       inkscape:connector-curvature="0"
       sodipodi:nodetypes="cssssssssc" />
    <path
       style="fill:#009fc2;fill-opacity:1;fill-rule:evenodd;stroke:none;stroke-width:1px;stroke-linecap:butt;stroke-linejoin:miter;stroke-opacity:1;filter:url(#filter4219)"
       d="m 465,345.3622 c 4,3 13,3 26,4 13,1 17,9 23,4 6,-5 9,-11 9,-11 0,0 3,-4 -13,-7 -16,-3 -22,-7 -31,-4 -9,3 -14,14 -14,14 z"
       id="path4171"
       inkscape:connector-curvature="0" />
    <path
       style="fill:#00ffff;fill-rule:evenodd;stroke:#000000;stroke-width:1px;stroke-linecap:butt;stroke-linejoin:miter;stroke-opacity:1;filter:url(#filter4207)"
       d="m -146,305.3622 c -6,5 -16,14 -12,22 4,8 0,20 10,20 10,0 13,-1 28,-1 15,0 20,-1 32,2 12,3 26,13 37,19 11,6 19,16 37,18 18,2 18,4 37,5 19,1 38,-1 47,2 9,3 23,21 22,26 -1,5 -6,23 -13,40 -7,17 -17,31 -10,40 7,9 20,32 33,36 13,4 39,3 49,-3 10,-6 25,-7 28,-16 3,-9 8,-26 12,-37 4,-11 -1,-19 8,-30 9,-11 26,-4 46,-1 20,3 47,9 69,12 22,3 65,9 91,17 26,8 147,11 152,13 5,2 93,18 104,27 11,9 62,25 68,23 6,-2 45,-3 44,6 -1,9 -7,29 -1,35 6,6 42,29 50,23 8,-6 32,-19 38,-25 6,-6 22,-32 13,-38 -9,-6 -26,-10 -40,-12 -14,-2 -36,-14 -51,-25 -15,-11 -40,-31 -40,-31 l -24,-13 z"
       id="path4169"
       inkscape:connector-curvature="0" />
    <path
       style="fill:#de8787;fill-rule:evenodd;stroke:#000000;stroke-width:1px;stroke-linecap:butt;stroke-linejoin:miter;stroke-opacity:1"
       d="m 125,226.3622 c 4,4 12,16 20,18 8,2 18,3 22,0 4,-3 11,-19 11,-25 0,-6 -1,-20 -1,-26 0,-6 -23,-24 -29,-24 -6,0 -29,16 -30,22 -1,6 -10,14 -7,23 3,9 14,12 14,12 z"
       id="path4163"
       inkscape:connector-curvature="0" />
    <path
       style="fill:#de8787;fill-rule:evenodd;stroke:#000000;stroke-width:1px;stroke-linecap:butt;stroke-linejoin:miter;stroke-opacity:1"
       d="m 258,290.3622 c 5,-6 11,-11 11,-11 0,0 7,-18 11,-18 4,0 20,10 21,13 1,3 -6,13 -11,15 -5,2 -8,1 -10,5 -2,4 -10,7 -10,7 z"
       id="path4159"
       inkscape:connector-curvature="0" />
    <path
       style="fill:#28170b;fill-rule:evenodd;stroke:#000000;stroke-width:1px;stroke-linecap:butt;stroke-linejoin:miter;stroke-opacity:1"
       d="m -129,107.3622 c 4,3 88,39 93,40 5,1 20,8 20,8 l 32,15 c 0,0 19,9 23,9 4,0 232,99 236,99 18.78777,8.02314 36.27332,14.35005 52.07042,21.66197 L 394,329.3622 l 6,10 63,13 c 0,0 19,-13 12,-17 -7,-4 -44,-14 -53,-14 -9,0 -10,4 -16,3 -6,-1 -263,-113 -263,-113 l -124,-54 c 0,0 -10,-8 -18,-12 -8,-4 -69,-25 -78,-29 -9,-4 -30,-5 -35,-6 -5,-1 -17,-3 -17,-3 z"
       id="path4167"
       inkscape:connector-curvature="0"
       sodipodi:nodetypes="csccscccccsssccsssc" />
    <path
       style="fill:#803300;fill-rule:evenodd;stroke:#000000;stroke-width:1px;stroke-linecap:butt;stroke-linejoin:miter;stroke-opacity:1"
       d="m 140,198.3622 c 10,-5 21,-9 24,-9 3,0 13,2 13,2 0,0 -5,-15 -12,-19 -7,-4 -9,-6 -17,-6 -8,0 -19,2 -23,12 -4,10 -9,14 -10,19 -1,5 -1,11 3,12 4,1 16,5 16,5 l 10,-13 z"
       id="path4165"
       inkscape:connector-curvature="0" />
    <path
       style="fill:#de8787;fill-rule:evenodd;stroke:#000000;stroke-width:1px;stroke-linecap:butt;stroke-linejoin:miter;stroke-opacity:1"
       d="m 89,230.3622 17,-22 c 0,0 -5,-9 6,-10 11,-1 21,-5 25,0 4,5 11,10 9,14 -2,4 -6,8 -14,10 -8,2 -12,5 -16,7 -4,2 -11,8 -11,8 z"
       id="path4157"
       inkscape:connector-curvature="0"
       sodipodi:nodetypes="ccssssscc" />
    <path
       style="fill:#ff2a2a;fill-rule:evenodd;stroke:#000000;stroke-width:1px;stroke-linecap:butt;stroke-linejoin:miter;stroke-opacity:1"
       d="m -176,259.3622 c 30,45 29,42 30,45 1,3 33,10 45,13 12,3 54,23 75,28 21,5 48,20 87,28 39,8 126,31 138,33 12,2 246,36 261,36 15,0 280,32 285,31 5,-1 148,-50 157,-55 9,-5 21,-18 2,-18 -19,0 -60,7 -110,9 -50,2 -366,3 -383,2 -17,-1 -203,-18 -217,-23 -14,-5 -167,-47 -184,-54 -17,-7 -118,-46 -126,-50 -8,-4 -60,-25 -60,-25 z"
       id="path4147"
       inkscape:connector-curvature="0" />
    <path
       style="fill:#ff5555;fill-rule:evenodd;stroke:#000000;stroke-width:1px;stroke-linecap:butt;stroke-linejoin:miter;stroke-opacity:1"
       d="m -177.73832,259.16594 c 0,0 153.73832,20.19626 166.73832,22.19626 13,2 97,16 104,17 7,1 223,16 236,20 13,4 142,30 159,33 17,3 147,22 159,23 12,1 127,14 141,15 14,1 88,9 96,9 8,0 31,-3 31,4 0,7 -51,9 -63,11 -12,2 -112,0 -154,1 -42,1 -187.73393,0.50617 -228,0 -44.04195,-0.55363 -232.70093,-15.71963 -263.70093,-22.71963 -31,-7 -236.130846,-67 -256.130846,-78 -20,-11 -127.906544,-54.47663 -127.906544,-54.47663 z"
       id="path4149"
       inkscape:connector-curvature="0"
       sodipodi:nodetypes="csssssssssssssc" />
    <path
       style="fill:#483737;fill-rule:evenodd;stroke:#000000;stroke-width:1px;stroke-linecap:butt;stroke-linejoin:miter;stroke-opacity:1"
       d="m 101.31579,297.09905 c -10.526316,11.8421 -21.972699,26.44149 -7.616754,30.54114 l 18.624904,5.31875 c 29.8064,8.51187 50.83395,0.98221 65.30764,-4.28095 14.47368,-5.26315 30.26316,-9.21052 36.8421,-11.8421 6.57895,-2.63158 11.84211,-6.57895 11.84211,-6.57895 0,0 -23.68421,-10.52631 -46.05263,-10.52631 -22.36842,0 -78.94737,-2.63158 -78.94737,-2.63158 z"
       id="path4223"
       inkscape:connector-curvature="0"
       sodipodi:nodetypes="csssscsc" />
    <path
       style="fill:#241c1c;fill-rule:evenodd;stroke:#000000;stroke-width:1px;stroke-linecap:butt;stroke-linejoin:miter;stroke-opacity:1"
       d="m 91,219.3622 c 8,3 17,6 21,12 4,6 -19,40 -12,40 7,0 7.5,-33 10.5,-29 3,4 21,-0.5 24,10.5 3,11 6,15.5 12,23.5 6,8 14,42.5 6,42.5 -8,0 -39,11 -43,4 -4,-7 -12,-12 -26,-18 -14,-6 -37.5,-19.5 -33.5,-28.5 4,-9 41,-57 41,-57 z"
       id="path4151"
       inkscape:connector-curvature="0"
       sodipodi:nodetypes="csssssssssc" />
    <path
       style="fill:#241c1c;fill-rule:evenodd;stroke:#000000;stroke-width:1px;stroke-linecap:butt;stroke-linejoin:miter;stroke-opacity:1"
       d="m 187,276.3622 c 0,0 26,27 33,32 7,5 46,4 52,1 6,-3 21,-9 12,-14 -9,-5 -20,-16 -20,-16 0,0 -24,10 -26,6 -2,-4 -24,-29 -24,-29 l -29,-15 z"
       id="path4155"
       inkscape:connector-curvature="0"
       sodipodi:nodetypes="cssscsccc" />
    <path
       style="fill:#ff6600;fill-rule:evenodd;stroke:#000000;stroke-width:1px;stroke-linecap:butt;stroke-linejoin:miter;stroke-opacity:1"
       d="m 108,249.3622 c 11,6 21,14 26,27 5,13 16,37 17,42 1,5 60,-10 60,-10 0,0 -15,-62 -17,-67 -2,-5 -17,-17 -18,-11 -1,6 -5,13 -18,15 -13,2 -32,-10 -40,-11 -8,-1 -10,15 -10,15 z"
       id="path4153"
       inkscape:connector-curvature="0" />
  </g>
</svg>
